<svg xmlns="http://www.w3.org/2000/svg" xmlns:xlink="http://www.w3.org/1999/xlink" width="500" zoomAndPan="magnify" viewBox="0 0 375 374.999991" height="500" preserveAspectRatio="xMidYMid meet" version="1.2"><defs><clipPath id="40a21db97e"><path d="M 187.5 0 C 83.945312 0 0 83.945312 0 187.5 C 0 291.054688 83.945312 375 187.5 375 C 291.054688 375 375 291.054688 375 187.5 C 375 83.945312 291.054688 0 187.5 0 Z M 187.5 0 "/></clipPath><clipPath id="419e65874a"><path d="M 67.238281 67.238281 L 307.761719 67.238281 L 307.761719 307.761719 L 67.238281 307.761719 Z M 67.238281 67.238281 "/></clipPath><clipPath id="bff02ceafc"><path d="M 187.5 67.238281 C 121.082031 67.238281 67.238281 121.082031 67.238281 187.5 C 67.238281 253.917969 121.082031 307.761719 187.5 307.761719 C 253.917969 307.761719 307.761719 253.917969 307.761719 187.5 C 307.761719 121.082031 253.917969 67.238281 187.5 67.238281 Z M 187.5 67.238281 "/></clipPath><clipPath id="a02db04ce4"><path d="M 67.238281 67.238281 L 307.753906 67.238281 L 307.753906 307.753906 L 67.238281 307.753906 Z M 67.238281 67.238281 "/></clipPath><clipPath id="cdcb1e1f6f"><path d="M 187.496094 67.238281 C 121.078125 67.238281 67.238281 121.078125 67.238281 187.496094 C 67.238281 253.914062 121.078125 307.753906 187.496094 307.753906 C 253.914062 307.753906 307.753906 253.914062 307.753906 187.496094 C 307.753906 121.078125 253.914062 67.238281 187.496094 67.238281 Z M 187.496094 67.238281 "/></clipPath><clipPath id="b6e1771fdb"><path d="M 103 94 L 278.765625 94 L 278.765625 271 L 103 271 Z M 103 94 "/></clipPath></defs><g id="d8cf7b491f"><g clip-rule="nonzero" clip-path="url(#40a21db97e)"><rect x="0" width="375" y="0" height="374.999991" style="fill:#ffff75;fill-opacity:1;stroke:none;"/><path style="fill:none;stroke-width:4;stroke-linecap:butt;stroke-linejoin:miter;stroke:#000000;stroke-opacity:1;stroke-miterlimit:4;" d="M 249.999994 -0.000000000000142109 C 111.927078 -0.000000000000142109 -0.000006 111.927084 -0.000006 250 C -0.000006 388.072917 111.927078 500.000001 249.999994 500.000001 C 388.072911 500.000001 499.999995 388.072917 499.999995 250 C 499.999995 111.927084 388.072911 -0.000000000000142109 249.999994 -0.000000000000142109 Z M 249.999994 -0.000000000000142109 " transform="matrix(0.75,0,0,0.75,0.0000045,0.000000000000106581)"/></g><g clip-rule="nonzero" clip-path="url(#419e65874a)"><g clip-rule="nonzero" clip-path="url(#bff02ceafc)"><path style=" stroke:none;fill-rule:nonzero;fill:#eb5c95;fill-opacity:1;" d="M 67.238281 67.238281 L 307.761719 67.238281 L 307.761719 307.761719 L 67.238281 307.761719 Z M 67.238281 67.238281 "/></g></g><g clip-rule="nonzero" clip-path="url(#a02db04ce4)"><g clip-rule="nonzero" clip-path="url(#cdcb1e1f6f)"><path style="fill:none;stroke-width:4;stroke-linecap:butt;stroke-linejoin:miter;stroke:#000000;stroke-opacity:1;stroke-miterlimit:4;" d="M 160.343308 -0.000446846 C 71.78601 -0.000446846 -0.000452846 71.786016 -0.000452846 160.343314 C -0.000452846 248.900611 71.78601 320.687074 160.343308 320.687074 C 248.900605 320.687074 320.687068 248.900611 320.687068 160.343314 C 320.687068 71.786016 248.900605 -0.000446846 160.343308 -0.000446846 Z M 160.343308 -0.000446846 " transform="matrix(0.75,0,0,0.75,67.238621,67.238616)"/></g></g><g style="fill:#000000;fill-opacity:1;"><g transform="translate(74.609779, 275.876719)"><path style="stroke:none" d="M -8.609375 -16.453125 C -7.128906 -13.890625 -6.25 -11.488281 -5.96875 -9.25 C -5.6875 -7.007812 -5.878906 -4.941406 -6.546875 -3.046875 C -7.210938 -1.160156 -8.242188 0.539062 -9.640625 2.0625 C -11.046875 3.59375 -12.707031 4.910156 -14.625 6.015625 C -16.5 7.097656 -18.445312 7.867188 -20.46875 8.328125 C -22.488281 8.796875 -24.492188 8.851562 -26.484375 8.5 C -28.472656 8.15625 -30.378906 7.300781 -32.203125 5.9375 C -34.023438 4.570312 -35.679688 2.609375 -37.171875 0.046875 C -38.984375 -3.078125 -40.019531 -5.859375 -40.28125 -8.296875 C -40.550781 -10.742188 -40.125 -12.941406 -39 -14.890625 C -37.882812 -16.847656 -36.144531 -18.644531 -33.78125 -20.28125 L -30.09375 -13.921875 C -32 -12.554688 -33.179688 -11.015625 -33.640625 -9.296875 C -34.097656 -7.578125 -33.601562 -5.46875 -32.15625 -2.96875 C -30.570312 -0.238281 -28.640625 1.296875 -26.359375 1.640625 C -24.085938 1.992188 -21.429688 1.289062 -18.390625 -0.46875 C -15.390625 -2.207031 -13.457031 -4.117188 -12.59375 -6.203125 C -11.726562 -8.285156 -12.082031 -10.691406 -13.65625 -13.421875 C -15.175781 -16.035156 -16.832031 -17.582031 -18.625 -18.0625 C -20.414062 -18.550781 -22.421875 -18.265625 -24.640625 -17.203125 L -28.359375 -23.609375 C -25.628906 -24.929688 -23.117188 -25.609375 -20.828125 -25.640625 C -18.535156 -25.671875 -16.390625 -24.945312 -14.390625 -23.46875 C -12.398438 -22 -10.472656 -19.660156 -8.609375 -16.453125 Z M -8.609375 -16.453125 "/></g></g><g style="fill:#000000;fill-opacity:1;"><g transform="translate(57.354164, 246.876766)"><path style="stroke:none" d="M -4.46875 -18.15625 C -3.625 -15.257812 -3.332031 -12.671875 -3.59375 -10.390625 C -3.863281 -8.117188 -4.546875 -6.144531 -5.640625 -4.46875 C -6.742188 -2.789062 -8.160156 -1.382812 -9.890625 -0.25 C -11.628906 0.875 -13.546875 1.738281 -15.640625 2.34375 C -17.691406 2.945312 -19.742188 3.238281 -21.796875 3.21875 C -23.847656 3.195312 -25.800781 2.773438 -27.65625 1.953125 C -29.507812 1.140625 -31.171875 -0.148438 -32.640625 -1.921875 C -34.117188 -3.691406 -35.28125 -6.023438 -36.125 -8.921875 C -36.976562 -11.816406 -37.253906 -14.394531 -36.953125 -16.65625 C -36.660156 -18.925781 -35.953125 -20.898438 -34.828125 -22.578125 C -33.703125 -24.265625 -32.28125 -25.671875 -30.5625 -26.796875 C -28.851562 -27.929688 -26.972656 -28.800781 -24.921875 -29.40625 C -22.828125 -30.007812 -20.75 -30.296875 -18.6875 -30.265625 C -16.632812 -30.242188 -14.6875 -29.820312 -12.84375 -29 C -11 -28.1875 -9.351562 -26.898438 -7.90625 -25.140625 C -6.46875 -23.378906 -5.320312 -21.050781 -4.46875 -18.15625 Z M -17.75 -4.84375 C -15.570312 -5.476562 -13.800781 -6.28125 -12.4375 -7.25 C -11.082031 -8.226562 -10.195312 -9.460938 -9.78125 -10.953125 C -9.363281 -12.453125 -9.476562 -14.304688 -10.125 -16.515625 C -10.769531 -18.710938 -11.671875 -20.332031 -12.828125 -21.375 C -13.984375 -22.414062 -15.394531 -22.976562 -17.0625 -23.0625 C -18.726562 -23.15625 -20.648438 -22.882812 -22.828125 -22.25 C -25.054688 -21.59375 -26.847656 -20.78125 -28.203125 -19.8125 C -29.554688 -18.84375 -30.4375 -17.609375 -30.84375 -16.109375 C -31.257812 -14.609375 -31.144531 -12.757812 -30.5 -10.5625 C -29.851562 -8.351562 -28.953125 -6.726562 -27.796875 -5.6875 C -26.648438 -4.65625 -25.242188 -4.09375 -23.578125 -4 C -21.921875 -3.90625 -19.976562 -4.1875 -17.75 -4.84375 Z M -17.75 -4.84375 "/></g></g><g style="fill:#000000;fill-opacity:1;"><g transform="translate(46.873233, 214.154143)"><path style="stroke:none" d="M -32.078125 -41.390625 L -0.703125 -41.90625 L -0.578125 -34.734375 L -27.234375 -34.296875 L -0.4375 -26.46875 L -0.296875 -18.171875 L -26.953125 -9.421875 L -0.15625 -9.859375 L -0.046875 -2.734375 L -31.421875 -2.21875 L -31.625 -14.53125 L -7.453125 -22.296875 L -31.875 -29.265625 Z M -32.078125 -41.390625 "/></g></g><g style="fill:#000000;fill-opacity:1;"><g transform="translate(45.708333, 172.827125)"><path style="stroke:none" d="M -18.84375 -48.84375 L 11.359375 -40.328125 L 9.421875 -33.4375 L -16.234375 -40.671875 L 7.171875 -25.484375 L 4.921875 -17.484375 L -23.125 -16.75 L 2.671875 -9.484375 L 0.734375 -2.625 L -29.46875 -11.140625 L -26.125 -23 L -0.734375 -23.5 L -22.125 -37.1875 Z M -18.84375 -48.84375 "/></g></g><g style="fill:#000000;fill-opacity:1;"><g transform="translate(57.532682, 132.85758)"><path style="stroke:none" d="M -0.046875 -11.4375 L 8.671875 -26.734375 L 13.625 -23.90625 L 1.359375 -2.375 L -25.90625 -17.90625 L -13.71875 -39.3125 L -8.796875 -36.515625 L -17.4375 -21.34375 L -11.328125 -17.859375 L -3.390625 -31.796875 L 1.234375 -29.15625 L -6.703125 -15.21875 Z M -0.046875 -11.4375 "/></g></g><g style="fill:#000000;fill-opacity:1;"><g transform="translate(70.573944, 108.766278)"><path style="stroke:none" d="M -5.78125 -40.484375 L -1.171875 -45.609375 L 22.15625 -24.625 L 14.203125 -15.78125 L -8.28125 -22.828125 C -9.125 -23.117188 -9.945312 -23.421875 -10.75 -23.734375 C -11.550781 -24.046875 -12.320312 -24.367188 -13.0625 -24.703125 L 6.4375 -7.15625 L 1.828125 -2.03125 L -21.5 -23.015625 L -13.546875 -31.859375 L 9.25 -24.671875 C 9.9375 -24.453125 10.664062 -24.195312 11.4375 -23.90625 C 12.207031 -23.613281 12.984375 -23.28125 13.765625 -22.90625 Z M -5.78125 -40.484375 "/></g></g><g style="fill:#000000;fill-opacity:1;"><g transform="translate(92.817283, 84.0131)"><path style="stroke:none" d="M 5.6875 -42.609375 L 8.96875 -38.015625 L 0.5625 -32.015625 L 15.515625 -11.078125 L 9.671875 -6.90625 L -5.28125 -27.84375 L -13.6875 -21.84375 L -16.96875 -26.4375 Z M 5.6875 -42.609375 "/></g></g><g style="fill:#000000;fill-opacity:1;"><g transform="translate(116.298459, 67.378263)"><path style="stroke:none" d="M 8.515625 -32.421875 L 3.265625 -29.953125 L 11.796875 -11.84375 L 17.046875 -14.3125 L 19.46875 -9.15625 L 2.46875 -1.171875 L 0.046875 -6.328125 L 5.3125 -8.796875 L -3.21875 -26.90625 L -8.484375 -24.4375 L -10.890625 -29.5625 L 6.109375 -37.546875 Z M 8.515625 -32.421875 "/></g></g><g style="fill:#000000;fill-opacity:1;"><g transform="translate(137.172032, 57.93447)"><path style="stroke:none" d="M 0.890625 -0.3125 L -1.140625 -6.203125 L 5.453125 -8.46875 L 7.484375 -2.578125 Z M 0.890625 -0.3125 "/></g></g><g style="fill:#000000;fill-opacity:1;"><g transform="translate(143.596794, 54.54607)"><path style="stroke:none" d="M 20 -35.6875 L 26.78125 -36.953125 L 32.5625 -6.109375 L 20.875 -3.921875 L 7.265625 -23.15625 C 6.785156 -23.90625 6.320312 -24.644531 5.875 -25.375 C 5.425781 -26.101562 5.003906 -26.832031 4.609375 -27.5625 L 9.453125 -1.78125 L 2.6875 -0.5 L -3.09375 -31.34375 L 8.59375 -33.546875 L 22.328125 -13.984375 C 22.742188 -13.398438 23.164062 -12.753906 23.59375 -12.046875 C 24.03125 -11.335938 24.445312 -10.601562 24.84375 -9.84375 Z M 20 -35.6875 "/></g></g><g style="fill:#000000;fill-opacity:1;"><g transform="translate(176.059642, 48.027065)"><path style="stroke:none" d="M 18.609375 1.796875 C 15.597656 1.628906 13.0625 1.039062 11 0.03125 C 8.9375 -0.96875 7.296875 -2.265625 6.078125 -3.859375 C 4.867188 -5.453125 4.015625 -7.253906 3.515625 -9.265625 C 3.023438 -11.273438 2.84375 -13.367188 2.96875 -15.546875 C 3.082031 -17.671875 3.488281 -19.703125 4.1875 -21.640625 C 4.894531 -23.578125 5.9375 -25.28125 7.3125 -26.75 C 8.695312 -28.226562 10.46875 -29.367188 12.625 -30.171875 C 14.78125 -30.984375 17.363281 -31.304688 20.375 -31.140625 C 23.394531 -30.984375 25.925781 -30.390625 27.96875 -29.359375 C 30.007812 -28.328125 31.640625 -27.003906 32.859375 -25.390625 C 34.078125 -23.773438 34.929688 -21.96875 35.421875 -19.96875 C 35.921875 -17.96875 36.113281 -15.90625 36 -13.78125 C 35.875 -11.601562 35.457031 -9.546875 34.75 -7.609375 C 34.050781 -5.679688 33.007812 -3.984375 31.625 -2.515625 C 30.238281 -1.046875 28.476562 0.078125 26.34375 0.859375 C 24.207031 1.640625 21.628906 1.953125 18.609375 1.796875 Z M 10.453125 -15.140625 C 10.328125 -12.867188 10.5 -10.929688 10.96875 -9.328125 C 11.4375 -7.722656 12.304688 -6.476562 13.578125 -5.59375 C 14.847656 -4.71875 16.628906 -4.21875 18.921875 -4.09375 C 21.210938 -3.96875 23.039062 -4.273438 24.40625 -5.015625 C 25.78125 -5.765625 26.78125 -6.910156 27.40625 -8.453125 C 28.039062 -9.992188 28.421875 -11.898438 28.546875 -14.171875 C 28.671875 -16.484375 28.5 -18.441406 28.03125 -20.046875 C 27.570312 -21.648438 26.703125 -22.894531 25.421875 -23.78125 C 24.140625 -24.664062 22.351562 -25.171875 20.0625 -25.296875 C 17.769531 -25.421875 15.941406 -25.109375 14.578125 -24.359375 C 13.222656 -23.609375 12.226562 -22.460938 11.59375 -20.921875 C 10.957031 -19.378906 10.578125 -17.453125 10.453125 -15.140625 Z M 10.453125 -15.140625 "/></g></g><g style="fill:#000000;fill-opacity:1;"><g transform="translate(210.573511, 49.628913)"><path style="stroke:none" d="M 34.171875 -22.484375 L 40.765625 -20.5 L 31.71875 9.546875 L 20.328125 6.125 L 17.109375 -17.21875 C 17.015625 -18.101562 16.9375 -18.972656 16.875 -19.828125 C 16.820312 -20.679688 16.789062 -21.519531 16.78125 -22.34375 L 9.21875 2.78125 L 2.625 0.78125 L 11.671875 -29.265625 L 23.046875 -25.828125 L 26.265625 -2.140625 C 26.347656 -1.429688 26.421875 -0.664062 26.484375 0.15625 C 26.554688 0.976562 26.59375 1.820312 26.59375 2.6875 Z M 34.171875 -22.484375 "/></g></g><g style="fill:#000000;fill-opacity:1;"><g transform="translate(242.905681, 60.254983)"><path style="stroke:none" d="M 0.84375 0.390625 L 3.484375 -5.25 L 9.8125 -2.28125 L 7.171875 3.359375 Z M 0.84375 0.390625 "/></g></g><g style="fill:#000000;fill-opacity:1;"><g transform="translate(249.890885, 62.571503)"><path style="stroke:none" d="M 28.390625 9.171875 L 27.234375 10.953125 C 26.535156 12.035156 26.015625 12.953125 25.671875 13.703125 C 25.335938 14.460938 25.035156 15.203125 24.765625 15.921875 L 18.71875 12.046875 C 18.863281 11.472656 19.128906 10.785156 19.515625 9.984375 C 19.910156 9.179688 20.457031 8.238281 21.15625 7.15625 L 22.046875 5.765625 C 22.992188 4.285156 23.28125 2.945312 22.90625 1.75 C 22.539062 0.550781 21.695312 -0.46875 20.375 -1.3125 L 14.9375 -4.8125 L 8.375 5.390625 L 2.296875 1.484375 L 19.265625 -24.90625 L 33.203125 -15.953125 C 36.109375 -14.078125 37.859375 -12 38.453125 -9.71875 C 39.054688 -7.445312 38.671875 -5.242188 37.296875 -3.109375 C 36.109375 -1.253906 34.59375 -0.0664062 32.75 0.453125 C 30.914062 0.984375 29.113281 0.914062 27.34375 0.25 C 28.101562 1.03125 28.707031 1.875 29.15625 2.78125 C 29.601562 3.695312 29.789062 4.671875 29.71875 5.703125 C 29.644531 6.742188 29.203125 7.898438 28.390625 9.171875 Z M 24.234375 -4.9375 C 25.609375 -4.050781 26.785156 -3.75 27.765625 -4.03125 C 28.742188 -4.320312 29.625 -5.078125 30.40625 -6.296875 C 31.125 -7.410156 31.375 -8.445312 31.15625 -9.40625 C 30.945312 -10.363281 30.179688 -11.269531 28.859375 -12.125 L 22.34375 -16.3125 L 17.71875 -9.125 Z M 24.234375 -4.9375 "/></g></g><g style="fill:#000000;fill-opacity:1;"><g transform="translate(274.739244, 78.723639)"><path style="stroke:none" d="M 33.296875 -4 L 29.078125 -7.96875 L 15.359375 6.609375 L 19.578125 10.578125 L 15.671875 14.734375 L 1.984375 1.875 L 5.890625 -2.28125 L 10.125 1.703125 L 23.84375 -12.875 L 19.609375 -16.859375 L 23.484375 -20.984375 L 37.171875 -8.125 Z M 33.296875 -4 "/></g></g><g style="fill:#000000;fill-opacity:1;"><g transform="translate(291.314687, 93.165595)"><path style="stroke:none" d="M 10.078125 15.59375 C 8.367188 13.175781 7.269531 10.863281 6.78125 8.65625 C 6.300781 6.457031 6.304688 4.382812 6.796875 2.4375 C 7.285156 0.488281 8.160156 -1.304688 9.421875 -2.953125 C 10.679688 -4.597656 12.210938 -6.0625 14.015625 -7.34375 C 15.773438 -8.59375 17.640625 -9.539062 19.609375 -10.1875 C 21.585938 -10.84375 23.582031 -11.082031 25.59375 -10.90625 C 27.601562 -10.738281 29.582031 -10.0625 31.53125 -8.875 C 33.476562 -7.6875 35.304688 -5.890625 37.015625 -3.484375 C 39.109375 -0.535156 40.398438 2.140625 40.890625 4.546875 C 41.378906 6.960938 41.15625 9.191406 40.21875 11.234375 C 39.289062 13.285156 37.722656 15.238281 35.515625 17.09375 L 31.265625 11.09375 C 33.023438 9.550781 34.050781 7.90625 34.34375 6.15625 C 34.644531 4.40625 33.957031 2.347656 32.28125 -0.015625 C 30.46875 -2.578125 28.410156 -3.925781 26.109375 -4.0625 C 23.804688 -4.207031 21.222656 -3.265625 18.359375 -1.234375 C 15.523438 0.773438 13.773438 2.859375 13.109375 5.015625 C 12.441406 7.171875 13.019531 9.53125 14.84375 12.09375 C 16.59375 14.550781 18.378906 15.941406 20.203125 16.265625 C 22.023438 16.585938 23.992188 16.117188 26.109375 14.859375 L 30.40625 20.90625 C 27.8125 22.46875 25.375 23.367188 23.09375 23.609375 C 20.820312 23.859375 18.617188 23.335938 16.484375 22.046875 C 14.359375 20.765625 12.222656 18.613281 10.078125 15.59375 Z M 10.078125 15.59375 "/></g></g><g style="fill:#000000;fill-opacity:1;"><g transform="translate(311.041525, 120.6435)"><path style="stroke:none" d="M 38.203125 10.609375 L 40.921875 17.25 L 11.859375 29.09375 L 9.140625 22.453125 L 21.375 17.46875 L 15.953125 4.140625 L 3.71875 9.125 L 1.03125 2.53125 L 30.09375 -9.3125 L 32.78125 -2.71875 L 21.15625 2.015625 L 26.578125 15.34375 Z M 38.203125 10.609375 "/></g></g><g style="fill:#000000;fill-opacity:1;"><g transform="translate(322.810907, 150.194169)"><path style="stroke:none" d="M 29.40625 16.09375 L 28.28125 10.40625 L 8.65625 14.3125 L 9.78125 20 L 4.1875 21.109375 L 0.53125 2.6875 L 6.125 1.578125 L 7.265625 7.28125 L 26.890625 3.375 L 25.75 -2.328125 L 31.296875 -3.421875 L 34.953125 15 Z M 29.40625 16.09375 "/></g></g><g style="fill:#000000;fill-opacity:1;"><g transform="translate(327.556921, 171.850242)"><path style="stroke:none" d="M 5.890625 9.796875 L 6.234375 27.40625 L 0.53125 27.515625 L 0.046875 2.734375 L 31.421875 2.125 L 31.90625 26.765625 L 26.25 26.875 L 25.90625 9.40625 L 18.875 9.546875 L 19.1875 25.59375 L 13.859375 25.6875 L 13.546875 9.640625 Z M 5.890625 9.796875 "/></g></g><g style="fill:#000000;fill-opacity:1;"><g transform="translate(328.408805, 199.351259)"><path style="stroke:none" d="M 9.828125 3.671875 L 8.5625 10.546875 C 6.914062 10.335938 5.445312 10.679688 4.15625 11.578125 C 2.875 12.472656 2.007812 14.144531 1.5625 16.59375 C 1.132812 18.9375 1.207031 20.625 1.78125 21.65625 C 2.363281 22.695312 3.273438 23.332031 4.515625 23.5625 C 6.734375 23.96875 8.285156 22.832031 9.171875 20.15625 L 11.3125 13.484375 C 12.132812 10.828125 13.425781 8.890625 15.1875 7.671875 C 16.957031 6.453125 19.109375 6.078125 21.640625 6.546875 C 24.421875 7.054688 26.515625 8.535156 27.921875 10.984375 C 29.328125 13.441406 29.632812 16.835938 28.84375 21.171875 C 28.28125 24.265625 27.367188 26.6875 26.109375 28.4375 C 24.859375 30.1875 23.398438 31.394531 21.734375 32.0625 C 20.066406 32.738281 18.304688 32.960938 16.453125 32.734375 L 17.71875 25.828125 C 19.207031 25.910156 20.472656 25.503906 21.515625 24.609375 C 22.554688 23.710938 23.265625 22.25 23.640625 20.21875 C 23.984375 18.320312 23.882812 16.820312 23.34375 15.71875 C 22.8125 14.613281 21.945312 13.953125 20.75 13.734375 C 19.84375 13.566406 19.023438 13.710938 18.296875 14.171875 C 17.578125 14.628906 17.03125 15.476562 16.65625 16.71875 L 14.703125 23.015625 C 12.828125 29.179688 9.226562 31.773438 3.90625 30.796875 C 1.894531 30.429688 0.21875 29.660156 -1.125 28.484375 C -2.476562 27.304688 -3.382812 25.660156 -3.84375 23.546875 C -4.300781 21.429688 -4.238281 18.765625 -3.65625 15.546875 C -3.1875 13.003906 -2.492188 10.914062 -1.578125 9.28125 C -0.660156 7.644531 0.414062 6.382812 1.65625 5.5 C 2.894531 4.613281 4.210938 4.039062 5.609375 3.78125 C 7.015625 3.519531 8.421875 3.484375 9.828125 3.671875 Z M 9.828125 3.671875 "/></g></g><g style="fill:#000000;fill-opacity:1;"><g transform="translate(323.380327, 228.026832)"><path style="stroke:none" d="M 18.03125 39.015625 L 12.78125 36.890625 L 16.671875 27.328125 L -7.15625 17.671875 L -4.46875 11.015625 L 19.359375 20.671875 L 23.234375 11.109375 L 28.484375 13.234375 Z M 18.03125 39.015625 "/></g></g><g style="fill:#000000;fill-opacity:1;"><g transform="translate(312.479083, 254.652765)"><path style="stroke:none" d="M 10.1875 31.953125 L 13.296875 27.046875 L -3.609375 16.328125 L -6.71875 21.234375 L -11.53125 18.171875 L -1.46875 2.3125 L 3.34375 5.375 L 0.234375 10.28125 L 17.140625 21 L 20.25 16.09375 L 25.03125 19.125 L 14.96875 34.984375 Z M 10.1875 31.953125 "/></g></g><path style=" stroke:none;fill-rule:nonzero;fill:#fbec62;fill-opacity:1;" d="M 137.105469 256.0625 C 136.867188 256.9375 136.703125 257.824219 136.609375 258.726562 C 136.515625 259.628906 136.496094 260.53125 136.546875 261.4375 C 136.597656 262.34375 136.71875 263.238281 136.917969 264.125 C 137.113281 265.011719 137.375 265.875 137.710938 266.71875 C 138.042969 267.5625 138.445312 268.371094 138.910156 269.152344 C 139.375 269.929688 139.898438 270.667969 140.480469 271.363281 C 141.0625 272.058594 141.699219 272.703125 142.386719 273.296875 C 143.070312 273.890625 143.800781 274.425781 144.574219 274.902344 C 147.894531 276.949219 151.839844 277.796875 155.738281 277.917969 C 160.46875 278.082031 165.191406 277.238281 169.757812 275.988281 C 173.722656 274.902344 177.816406 273.351562 180.335938 270.09375 "/><path style=" stroke:none;fill-rule:nonzero;fill:#231f20;fill-opacity:1;" d="M 135.738281 255.683594 C 133.703125 263.632812 137.082031 272.179688 144.230469 276.339844 C 152.035156 280.890625 162.011719 279.609375 170.320312 277.308594 C 174.410156 276.171875 178.613281 274.511719 181.328125 271.097656 C 182.453125 269.6875 180.460938 267.671875 179.3125 269.085938 C 177.226562 271.734375 174.203125 273.152344 171.058594 274.148438 C 167.226562 275.386719 163.300781 276.15625 159.285156 276.457031 C 152.042969 276.914062 144.273438 275.152344 140.238281 268.597656 C 139.132812 266.773438 138.425781 264.804688 138.117188 262.695312 C 137.8125 260.585938 137.929688 258.496094 138.476562 256.433594 C 138.929688 254.675781 136.207031 253.921875 135.746094 255.679688 Z M 135.738281 255.683594 "/><path style=" stroke:none;fill-rule:nonzero;fill:#fbec62;fill-opacity:1;" d="M 198.203125 269.101562 C 200.121094 271.269531 202.296875 273.132812 204.730469 274.699219 C 207.164062 276.261719 209.769531 277.464844 212.539062 278.308594 C 217.878906 279.925781 223.800781 280.039062 228.9375 277.859375 C 229.992188 277.414062 231 276.875 231.960938 276.25 C 232.925781 275.625 233.824219 274.921875 234.660156 274.140625 C 235.5 273.355469 236.261719 272.507812 236.949219 271.59375 C 237.636719 270.675781 238.242188 269.707031 238.757812 268.683594 C 239.277344 267.664062 239.703125 266.605469 240.035156 265.507812 C 240.367188 264.410156 240.601562 263.292969 240.734375 262.15625 C 240.871094 261.019531 240.90625 259.878906 240.84375 258.738281 C 240.777344 257.59375 240.613281 256.464844 240.351562 255.347656 "/><path style=" stroke:none;fill-rule:nonzero;fill:#231f20;fill-opacity:1;" d="M 197.203125 270.101562 C 202.832031 276.40625 210.980469 280.585938 219.492188 280.914062 C 227.910156 281.230469 236.113281 277.035156 239.984375 269.40625 C 241.101562 267.171875 241.808594 264.820312 242.105469 262.34375 C 242.402344 259.867188 242.273438 257.410156 241.714844 254.980469 C 241.316406 253.203125 238.585938 253.953125 238.984375 255.734375 C 240.644531 263.125 237.554688 270.949219 231.160156 275.09375 C 224.609375 279.328125 216.082031 278.746094 209.222656 275.570312 C 205.367188 273.777344 202.027344 271.292969 199.207031 268.113281 C 197.988281 266.753906 195.992188 268.757812 197.191406 270.125 Z M 197.203125 270.101562 "/><path style=" stroke:none;fill-rule:nonzero;fill:#fbec62;fill-opacity:1;" d="M 133.203125 204.335938 C 134.710938 202.390625 136.246094 200.464844 137.808594 198.554688 L 135.441406 197.179688 C 135.230469 198.164062 134.992188 199.136719 134.683594 200.101562 C 134.578125 200.453125 134.082031 202.472656 133.742188 202.527344 C 131.949219 202.832031 132.710938 205.558594 134.5 205.257812 C 135.976562 205.003906 136.449219 203.648438 136.90625 202.394531 C 137.433594 200.933594 137.851562 199.449219 138.164062 197.929688 C 138.429688 196.671875 136.765625 195.371094 135.796875 196.554688 C 134.238281 198.457031 132.707031 200.382812 131.195312 202.335938 C 130.089844 203.757812 132.082031 205.773438 133.210938 204.335938 Z M 133.203125 204.335938 "/><path style=" stroke:none;fill-rule:nonzero;fill:#fbec62;fill-opacity:1;" d="M 123.585938 233.050781 C 127.882812 241.730469 132.402344 250.613281 139.703125 257.003906 C 146.738281 263.179688 155.886719 266.558594 165.136719 268.066406 C 174.390625 269.574219 183.792969 269.371094 193.15625 269.117188 C 206.375 268.761719 220.101562 268.226562 231.832031 262.121094 C 232.917969 261.558594 233.980469 260.949219 235.015625 260.292969 C 236.050781 259.640625 237.058594 258.945312 238.035156 258.207031 C 239.011719 257.46875 239.957031 256.691406 240.871094 255.875 C 241.78125 255.058594 242.660156 254.207031 243.5 253.316406 C 244.34375 252.425781 245.144531 251.503906 245.910156 250.546875 C 246.671875 249.589844 247.394531 248.605469 248.078125 247.589844 C 248.761719 246.574219 249.398438 245.53125 249.992188 244.460938 C 250.589844 243.390625 251.136719 242.296875 251.640625 241.183594 C 252.144531 240.066406 252.601562 238.933594 253.011719 237.78125 C 253.417969 236.628906 253.78125 235.460938 254.089844 234.277344 C 254.402344 233.09375 254.664062 231.898438 254.875 230.695312 C 255.085938 229.488281 255.25 228.277344 255.359375 227.058594 C 255.46875 225.839844 255.53125 224.621094 255.539062 223.398438 C 255.546875 222.175781 255.503906 220.953125 255.410156 219.734375 C 255.320312 218.511719 255.175781 217.300781 254.980469 216.089844 C 254.785156 214.882812 254.542969 213.6875 254.246094 212.5 L 250.394531 211.554688 C 251.261719 210.859375 252.507812 210.800781 253.5625 211.140625 C 254.613281 211.480469 255.511719 212.191406 256.332031 212.929688 C 261.21875 217.277344 264.605469 223.273438 270.078125 226.859375 C 271.628906 227.867188 273.671875 228.679688 275.28125 227.757812 C 276.179688 227.253906 276.742188 226.273438 276.96875 225.265625 C 277.15625 224.238281 277.167969 223.210938 277.003906 222.183594 C 276.25 215.667969 273.546875 209.527344 270.394531 203.773438 C 268.484375 200.285156 266.363281 196.875 263.753906 193.875 C 261.148438 190.875 257.964844 188.289062 254.320312 186.703125 L 253.707031 186.429688 C 254.582031 168.75 251.757812 150.472656 242.757812 135.226562 C 233.761719 119.984375 217.992188 108.160156 200.328125 106.632812 L 200.054688 106.476562 C 201.109375 105.097656 201.917969 103.585938 202.488281 101.949219 C 202.679688 101.394531 202.84375 100.789062 202.65625 100.234375 C 202.371094 99.382812 201.382812 98.992188 200.488281 98.898438 C 198.710938 98.714844 196.914062 99.300781 195.429688 100.289062 C 193.945312 101.28125 192.753906 102.652344 191.753906 104.128906 C 190.761719 101.839844 189.753906 99.53125 188.328125 97.484375 C 187.769531 96.675781 187.089844 95.875 186.144531 95.59375 C 185.804688 95.492188 185.390625 95.480469 185.140625 95.722656 C 184.886719 95.96875 184.871094 96.335938 184.871094 96.675781 C 184.910156 99.683594 185.582031 102.542969 186.886719 105.25 L 186.382812 105.167969 C 172.441406 103.640625 158.570312 110.457031 148.769531 120.429688 C 138.972656 130.402344 132.652344 143.269531 127.386719 156.21875 C 124.5625 163.179688 121.890625 170.40625 116.921875 176.042969 C 113.46875 179.957031 108.949219 183.066406 106.625 187.734375 C 103.324219 194.34375 105.265625 202.316406 108.011719 209.175781 C 110.761719 216.035156 114.308594 222.914062 114.113281 230.296875 C 114.039062 233.007812 114.085938 236.679688 116.738281 237.253906 C 118.175781 237.566406 119.585938 236.625 120.589844 235.550781 C 125.90625 229.847656 124.542969 220.902344 126.03125 213.253906 C 126.402344 211.386719 126.953125 209.578125 127.683594 207.824219 C 128.417969 206.066406 129.316406 204.402344 130.378906 202.824219 C 131.441406 201.246094 132.648438 199.789062 134 198.453125 C 135.355469 197.113281 136.824219 195.921875 138.414062 194.875 "/><g clip-rule="nonzero" clip-path="url(#b6e1771fdb)"><path style=" stroke:none;fill-rule:nonzero;fill:#231f20;fill-opacity:1;" d="M 122.359375 233.765625 C 127.625 244.398438 133.382812 255.117188 143.640625 261.738281 C 154.332031 268.636719 167.347656 270.472656 179.832031 270.691406 C 186.480469 270.804688 193.152344 270.597656 199.796875 270.316406 C 206.105469 270.050781 212.441406 269.546875 218.628906 268.222656 C 230.046875 265.78125 240.332031 260.050781 247.519531 250.738281 C 255.933594 239.84375 258.851562 225.472656 255.609375 212.125 C 255.46875 211.605469 255.136719 211.277344 254.621094 211.136719 L 250.761719 210.195312 L 251.097656 212.78125 C 253.484375 211.125 256.453125 214.917969 257.898438 216.46875 C 259.722656 218.4375 261.386719 220.542969 263.1875 222.542969 C 265.9375 225.613281 272.074219 232.25 276.582031 228.578125 C 278.75 226.816406 278.667969 223.890625 278.324219 221.371094 C 277.90625 218.417969 277.171875 215.539062 276.125 212.746094 C 274.011719 207.019531 271.203125 201.65625 267.703125 196.652344 C 264.246094 191.722656 259.96875 187.691406 254.429688 185.21875 L 255.132812 186.4375 C 255.859375 171.285156 253.941406 155.8125 247.753906 141.851562 C 242.222656 129.375 232.980469 118.488281 221.019531 111.746094 C 217.839844 109.949219 214.511719 108.488281 211.039062 107.367188 C 209.242188 106.789062 207.421875 106.316406 205.574219 105.953125 C 204.707031 105.789062 203.835938 105.644531 202.964844 105.523438 C 202.460938 105.453125 201.957031 105.386719 201.457031 105.332031 L 200.898438 105.273438 C 200.382812 105.214844 201.152344 105.472656 200.773438 105.253906 L 201.277344 107.1875 C 202.515625 105.523438 203.984375 103.222656 204.128906 101.09375 C 204.269531 99.082031 202.738281 97.824219 200.855469 97.539062 C 196.464844 96.878906 192.851562 100.0625 190.527344 103.417969 L 192.976562 103.417969 C 192.042969 101.269531 191.105469 99.09375 189.800781 97.132812 C 188.828125 95.671875 187.265625 93.753906 185.25 94.171875 C 182.894531 94.675781 183.425781 97.585938 183.660156 99.332031 C 183.980469 101.648438 184.648438 103.859375 185.65625 105.96875 L 187.257812 103.886719 C 172.542969 101.539062 157.429688 109.453125 147.46875 119.730469 C 141.871094 125.511719 137.355469 132.253906 133.59375 139.339844 C 129.828125 146.425781 126.9375 153.820312 123.859375 161.1875 C 122.328125 164.863281 120.621094 168.5 118.398438 171.808594 C 116.226562 175.046875 113.390625 177.605469 110.636719 180.328125 C 107.957031 182.972656 105.5625 185.890625 104.382812 189.507812 C 103.164062 193.242188 103.308594 197.269531 104.046875 201.074219 C 105.636719 209.308594 110.414062 216.492188 112.160156 224.679688 C 112.566406 226.679688 112.742188 228.703125 112.6875 230.746094 C 112.664062 232.1875 112.6875 233.691406 113.078125 235.09375 C 113.964844 238.285156 117.179688 239.722656 120.070312 237.839844 C 126.074219 233.925781 126.210938 225.195312 126.738281 218.878906 C 127.039062 215.308594 127.566406 211.804688 128.933594 208.46875 C 130.335938 205.085938 132.335938 202.101562 134.929688 199.515625 C 136.214844 198.234375 137.613281 197.09375 139.128906 196.097656 C 140.636719 195.089844 139.226562 192.648438 137.699219 193.65625 C 134.839844 195.542969 132.367188 197.847656 130.28125 200.570312 C 128.199219 203.289062 126.617188 206.273438 125.539062 209.527344 C 123.429688 215.929688 124.386719 222.835938 122.472656 229.257812 C 122.042969 230.753906 121.390625 232.144531 120.507812 233.425781 C 119.800781 234.433594 118.0625 236.621094 116.621094 235.714844 C 115.699219 235.136719 115.613281 233.578125 115.546875 232.609375 C 115.449219 230.941406 115.59375 229.28125 115.449219 227.613281 C 114.734375 219.609375 110.492188 212.671875 108.046875 205.160156 C 106.871094 201.554688 106.070312 197.765625 106.367188 193.953125 C 106.667969 190.207031 108.335938 186.972656 110.828125 184.210938 C 113.222656 181.558594 116.03125 179.304688 118.339844 176.570312 C 120.746094 173.722656 122.65625 170.511719 124.273438 167.160156 C 127.578125 160.308594 130.03125 153.078125 133.300781 146.207031 C 136.570312 139.332031 140.382812 132.566406 145.183594 126.59375 C 154.195312 115.378906 167.464844 106.414062 182.316406 106.371094 C 183.71875 106.339844 185.113281 106.425781 186.503906 106.621094 C 187.761719 106.820312 188.652344 105.714844 188.101562 104.542969 C 187.460938 103.175781 186.988281 101.75 186.675781 100.269531 C 186.515625 99.523438 186.40625 98.769531 186.347656 98.007812 C 186.347656 97.933594 186.324219 96.695312 186.289062 96.675781 L 185.769531 96.957031 C 185.945312 97.015625 186.101562 97.105469 186.238281 97.226562 C 187.289062 98.007812 187.980469 99.511719 188.578125 100.648438 C 189.300781 102.011719 189.914062 103.429688 190.527344 104.84375 C 190.988281 105.902344 192.441406 105.613281 192.976562 104.84375 C 194.457031 102.707031 196.527344 100.589844 199.257812 100.316406 C 199.761719 100.265625 200.476562 100.207031 200.9375 100.460938 C 201.550781 100.800781 201.1875 101.425781 200.976562 101.988281 C 200.4375 103.347656 199.722656 104.601562 198.832031 105.761719 C 198.375 106.375 198.734375 107.34375 199.335938 107.695312 C 200.484375 108.363281 202.214844 108.230469 203.519531 108.453125 C 205.132812 108.71875 206.726562 109.070312 208.300781 109.503906 C 211.339844 110.34375 214.265625 111.460938 217.085938 112.863281 C 222.917969 115.792969 228.097656 119.601562 232.628906 124.289062 C 242.464844 134.390625 248.21875 147.625 250.777344 161.359375 C 252.3125 169.613281 252.691406 178.046875 252.289062 186.421875 C 252.28125 186.675781 252.34375 186.914062 252.46875 187.132812 C 252.59375 187.351562 252.765625 187.523438 252.988281 187.644531 C 257.519531 189.65625 261.191406 192.710938 264.203125 196.640625 C 267.515625 200.960938 270.191406 205.941406 272.351562 210.914062 C 273.503906 213.539062 274.398438 216.246094 275.035156 219.039062 C 275.441406 220.871094 276.761719 225.324219 274.5625 226.53125 C 272.457031 227.683594 269.347656 224.671875 267.957031 223.394531 C 266.140625 221.71875 264.539062 219.832031 262.941406 217.949219 C 261.132812 215.8125 259.324219 213.640625 257.183594 211.789062 C 255.128906 210 252.222656 208.566406 249.679688 210.332031 C 248.730469 210.988281 248.757812 212.609375 250.019531 212.914062 L 253.867188 213.859375 L 252.875 212.871094 C 255.667969 224.371094 253.574219 236.757812 247.007812 246.617188 C 240.875 255.839844 231.492188 261.980469 220.855469 264.785156 C 215.0625 266.308594 209.09375 266.964844 203.128906 267.316406 C 196.855469 267.683594 190.554688 267.835938 184.273438 267.875 C 172.183594 267.953125 159.613281 267.035156 148.683594 261.378906 C 145.84375 259.898438 143.210938 258.113281 140.785156 256.019531 C 138.359375 253.929688 136.207031 251.585938 134.328125 248.992188 C 130.535156 243.816406 127.640625 238.0625 124.804688 232.332031 C 123.996094 230.699219 121.550781 232.132812 122.359375 233.761719 Z M 122.359375 233.765625 "/></g><path style=" stroke:none;fill-rule:nonzero;fill:#ffffff;fill-opacity:1;" d="M 140.804688 208.0625 C 139.683594 210.511719 139.011719 213.078125 138.789062 215.757812 C 138.621094 217.90625 138.644531 220.644531 140.75 221.890625 C 142.796875 223.097656 144.332031 221.269531 143.464844 219.289062 C 142.335938 216.703125 141.738281 214.113281 142.152344 211.277344 C 142.359375 209.851562 140.175781 209.238281 139.964844 210.679688 C 139.707031 212.363281 139.707031 214.046875 139.964844 215.730469 C 140.105469 216.644531 140.332031 217.539062 140.644531 218.410156 C 140.773438 218.769531 140.917969 219.125 141.070312 219.472656 L 141.242188 219.859375 C 141.332031 220.363281 141.613281 220.421875 142.089844 220.035156 C 142.074219 220.199219 141.316406 219.253906 141.300781 219.222656 C 141.125 218.8125 141.03125 218.386719 141.015625 217.941406 C 140.96875 217.058594 140.996094 216.175781 141.105469 215.300781 C 141.332031 213.179688 141.890625 211.148438 142.773438 209.207031 C 143.367188 207.890625 141.414062 206.734375 140.816406 208.0625 Z M 140.804688 208.0625 "/><path style=" stroke:none;fill-rule:nonzero;fill:#f3bd7a;fill-opacity:1;" d="M 198.65625 163.128906 C 193.355469 163.253906 188.203125 164.179688 183.191406 165.910156 C 180.875 166.714844 178.578125 167.703125 176.707031 169.289062 C 174.835938 170.871094 173.429688 173.125 173.304688 175.574219 C 173.242188 176.917969 173.625 178.359375 174.65625 179.21875 C 175.640625 180.039062 177.003906 180.1875 178.277344 180.300781 C 189.382812 181.28125 200.828125 182.011719 211.445312 178.621094 C 213.261719 178.039062 215.089844 177.3125 216.480469 176.023438 C 217.875 174.730469 218.792969 172.753906 218.363281 170.902344 C 218.066406 169.609375 217.160156 168.519531 216.082031 167.75 C 215 166.980469 213.742188 166.492188 212.484375 166.066406 C 207.785156 164.453125 202.953125 163.46875 197.996094 163.105469 "/><path style=" stroke:none;fill-rule:nonzero;fill:#231f20;fill-opacity:1;" d="M 198.65625 161.714844 C 194.527344 161.820312 190.46875 162.394531 186.472656 163.4375 C 182.832031 164.394531 179.015625 165.632812 176.039062 168.015625 C 173.488281 170.050781 171.539062 173.320312 171.9375 176.679688 C 172.128906 178.269531 172.863281 179.78125 174.246094 180.664062 C 175.628906 181.546875 177.371094 181.632812 178.972656 181.773438 C 186.984375 182.472656 195.070312 182.980469 203.074219 181.902344 C 206.863281 181.398438 210.761719 180.605469 214.277344 179.0625 C 217.285156 177.742188 220.136719 175.011719 219.867188 171.457031 C 219.546875 167.183594 215.246094 165.449219 211.730469 164.324219 C 207.257812 162.914062 202.679688 162.035156 198 161.6875 C 196.183594 161.546875 196.1875 164.378906 198 164.515625 C 201.460938 164.78125 204.867188 165.359375 208.222656 166.246094 C 210.898438 166.957031 215.058594 167.695312 216.601562 170.289062 C 218.230469 173.03125 215.316406 175.53125 213.035156 176.539062 C 210.179688 177.792969 206.949219 178.453125 203.878906 178.945312 C 197.273438 180.007812 190.5 179.804688 183.851562 179.335938 C 182.300781 179.226562 180.75 179.101562 179.203125 178.964844 C 177.894531 178.851562 175.984375 178.929688 175.175781 177.683594 C 173.664062 175.339844 175.679688 172.117188 177.414062 170.546875 C 180.058594 168.148438 183.847656 167.050781 187.234375 166.164062 C 190.980469 165.183594 194.789062 164.644531 198.664062 164.542969 C 200.484375 164.492188 200.492188 161.660156 198.664062 161.714844 Z M 198.65625 161.714844 "/><path style=" stroke:none;fill-rule:nonzero;fill:#231f20;fill-opacity:1;" d="M 161.175781 159.664062 C 158.828125 160.085938 156.25 159.511719 155.148438 162.25 C 154.292969 164.378906 155.167969 166.875 156.847656 168.335938 C 160.921875 171.875 167.171875 168.140625 166.308594 162.929688 C 165.472656 157.9375 157.707031 156.140625 155.695312 161.308594 C 154.710938 163.820312 156.222656 166.085938 158.492188 167.148438 C 160.953125 168.3125 163.003906 167.113281 163.332031 164.46875 C 163.5 163.15625 163.21875 161.777344 161.835938 161.261719 C 161.246094 161.078125 160.644531 161.046875 160.03125 161.160156 C 159.421875 161.273438 158.875 161.523438 158.390625 161.910156 C 158.171875 162.105469 157.996094 162.332031 157.871094 162.597656 C 157.746094 162.859375 157.679688 163.136719 157.667969 163.429688 C 157.65625 163.722656 157.703125 164.003906 157.808594 164.277344 C 157.914062 164.550781 158.070312 164.789062 158.273438 165 C 158.730469 165.464844 159.28125 165.730469 159.929688 165.792969 C 160.183594 165.816406 160.433594 165.8125 160.6875 165.777344 C 160.964844 165.753906 161.238281 165.703125 161.503906 165.625 C 161.976562 165.664062 162.097656 165.480469 161.855469 165.074219 C 162.007812 166.875 164.839844 166.890625 164.6875 165.074219 C 164.667969 164.738281 164.589844 164.417969 164.441406 164.117188 C 164.296875 163.8125 164.101562 163.550781 163.851562 163.324219 C 163.601562 163.101562 163.316406 162.929688 163 162.820312 C 162.683594 162.707031 162.355469 162.660156 162.019531 162.675781 C 161.59375 162.707031 161.175781 162.78125 160.761719 162.894531 C 160.238281 162.824219 160.078125 163.027344 160.28125 163.511719 C 160.144531 163.996094 160.25 164.140625 160.601562 163.953125 C 160.914062 163.964844 160.953125 163.933594 160.722656 163.859375 C 160.519531 163.714844 160.472656 163.8125 160.550781 164.160156 C 160.511719 164.261719 160.496094 164.820312 160.367188 164.878906 C 160.007812 165.039062 158.765625 164.066406 158.542969 163.785156 C 158.039062 163.164062 158.175781 162.339844 158.695312 161.773438 C 159.703125 160.667969 161.523438 160.851562 162.59375 161.746094 C 165.253906 163.984375 162.113281 168.285156 159.15625 166.539062 C 158.195312 165.96875 157.121094 164.316406 157.839844 163.191406 C 158.484375 162.1875 160.871094 162.59375 161.9375 162.402344 C 163.726562 162.082031 162.96875 159.355469 161.183594 159.675781 Z M 161.175781 159.664062 "/><path style=" stroke:none;fill-rule:nonzero;fill:#231f20;fill-opacity:1;" d="M 225.367188 155.097656 C 221.242188 152.585938 216.414062 156.496094 217.386719 161.035156 C 218.429688 165.882812 224.992188 167.253906 228.21875 163.679688 C 229.839844 161.878906 230.117188 159.046875 228.558594 157.117188 C 228.21875 156.71875 227.832031 156.375 227.398438 156.085938 C 226.964844 155.796875 226.496094 155.570312 226 155.410156 C 225.5 155.25 224.992188 155.164062 224.46875 155.148438 C 223.945312 155.132812 223.429688 155.1875 222.921875 155.316406 C 220.726562 155.882812 219.019531 157.832031 219.300781 160.15625 C 219.335938 160.425781 219.394531 160.691406 219.484375 160.945312 C 219.574219 161.203125 219.6875 161.449219 219.828125 161.679688 C 219.96875 161.914062 220.132812 162.128906 220.320312 162.324219 C 220.503906 162.523438 220.710938 162.699219 220.933594 162.851562 C 221.15625 163.007812 221.394531 163.136719 221.644531 163.242188 C 221.894531 163.34375 222.15625 163.421875 222.421875 163.472656 C 222.691406 163.519531 222.960938 163.542969 223.230469 163.535156 C 223.503906 163.527344 223.769531 163.492188 224.035156 163.425781 C 226.496094 162.886719 228.0625 159.453125 225.585938 157.839844 C 223.363281 156.402344 220.570312 158.914062 222.042969 161.203125 C 223.027344 162.734375 225.480469 161.316406 224.488281 159.777344 C 224.605469 159.960938 222.492188 161.605469 222.117188 159.933594 C 221.851562 158.746094 223.207031 158.03125 224.195312 157.988281 C 226.964844 157.871094 227.570312 161.144531 225.296875 162.445312 C 223.371094 163.546875 220.515625 162.625 220.125 160.292969 C 219.757812 158.105469 221.96875 156.34375 223.941406 157.550781 C 225.5 158.503906 226.925781 156.058594 225.371094 155.109375 Z M 225.367188 155.097656 "/><path style=" stroke:none;fill-rule:nonzero;fill:#f38db4;fill-opacity:1;" d="M 105.980469 206.367188 C 104.617188 206.507812 102.734375 207.488281 101.738281 208.429688 C 100.746094 209.40625 100.027344 210.554688 99.585938 211.878906 C 99.265625 212.824219 99.078125 213.796875 99.019531 214.792969 C 98.960938 215.792969 99.039062 216.777344 99.25 217.757812 C 99.457031 218.734375 99.792969 219.664062 100.257812 220.550781 C 100.71875 221.4375 101.289062 222.25 101.96875 222.980469 C 102.667969 223.695312 103.449219 224.304688 104.316406 224.808594 C 105.179688 225.3125 106.09375 225.691406 107.0625 225.949219 C 108.03125 226.207031 109.011719 226.332031 110.015625 226.324219 C 111.015625 226.316406 111.996094 226.175781 112.960938 225.902344 "/><path style=" stroke:none;fill-rule:nonzero;fill:#231f20;fill-opacity:1;" d="M 105.675781 205.277344 C 99.058594 206.242188 96.507812 214.023438 98.625 219.664062 C 100.824219 225.519531 107.238281 228.660156 113.257812 226.992188 C 114.660156 226.605469 114.0625 224.421875 112.652344 224.8125 C 107.882812 226.132812 102.609375 223.757812 100.816406 219.0625 C 99.066406 214.492188 100.847656 208.25 106.28125 207.460938 C 107.71875 207.25 107.105469 205.066406 105.679688 205.277344 Z M 105.675781 205.277344 "/><path style=" stroke:none;fill-rule:nonzero;fill:#f38db4;fill-opacity:1;" d="M 128.796875 205.46875 C 132.417969 204.964844 137.148438 205.546875 140.535156 206.921875 L 140.851562 207.089844 C 140.378906 207.640625 139.960938 208.234375 139.597656 208.867188 C 139.234375 209.496094 138.933594 210.15625 138.699219 210.847656 C 138.460938 211.535156 138.289062 212.238281 138.1875 212.960938 C 138.082031 213.679688 138.046875 214.402344 138.082031 215.132812 C 138.117188 215.859375 138.21875 216.574219 138.386719 217.285156 C 138.554688 217.992188 138.789062 218.675781 139.089844 219.339844 C 139.390625 220.003906 139.75 220.632812 140.167969 221.230469 C 140.585938 221.824219 141.058594 222.375 141.582031 222.882812 L 140.871094 223.253906 C 135.800781 225.460938 130.496094 226.453125 124.96875 226.226562 "/><path style=" stroke:none;fill-rule:nonzero;fill:#231f20;fill-opacity:1;" d="M 128.796875 206.597656 C 130.871094 206.339844 132.945312 206.359375 135.015625 206.65625 C 136.746094 206.910156 138.722656 207.234375 140.28125 208.066406 L 140.050781 206.289062 C 135.769531 211.460938 136.023438 218.898438 140.78125 223.683594 L 141.011719 221.90625 C 136.191406 224.417969 130.351562 225.285156 124.96875 225.09375 C 123.511719 225.046875 123.511719 227.308594 124.96875 227.359375 C 130.761719 227.5625 136.984375 226.5625 142.152344 223.859375 C 142.304688 223.769531 142.425781 223.652344 142.523438 223.503906 C 142.617188 223.359375 142.679688 223.199219 142.699219 223.027344 C 142.722656 222.851562 142.707031 222.683594 142.648438 222.519531 C 142.59375 222.351562 142.503906 222.207031 142.382812 222.082031 C 141.921875 221.625 141.503906 221.128906 141.132812 220.589844 C 140.761719 220.054688 140.441406 219.492188 140.175781 218.894531 C 139.910156 218.300781 139.699219 217.6875 139.546875 217.054688 C 139.394531 216.421875 139.300781 215.777344 139.269531 215.128906 C 139.234375 214.476562 139.261719 213.828125 139.347656 213.183594 C 139.433594 212.539062 139.582031 211.90625 139.785156 211.285156 C 139.988281 210.667969 140.246094 210.074219 140.5625 209.5 C 140.875 208.929688 141.238281 208.394531 141.652344 207.890625 C 142.097656 207.355469 142.121094 206.484375 141.421875 206.113281 C 137.8125 204.1875 132.789062 203.820312 128.796875 204.335938 C 127.371094 204.523438 127.355469 206.785156 128.796875 206.597656 Z M 128.796875 206.597656 "/><path style=" stroke:none;fill-rule:nonzero;fill:#c7dee2;fill-opacity:1;" d="M 140.53125 207.296875 C 144.753906 208.171875 149.164062 207.671875 153.34375 206.601562 C 157.527344 205.53125 161.539062 203.902344 165.609375 202.476562 C 171.246094 200.503906 176.992188 198.917969 182.84375 197.726562 C 183.601562 197.574219 184.402344 197.425781 185.148438 197.636719 C 186.246094 197.949219 186.984375 198.949219 187.535156 199.945312 C 190.894531 206 189.972656 214.140625 185.34375 219.304688 C 181.820312 223.222656 176.710938 225.261719 171.71875 226.933594 C 168.390625 228.046875 165 229.0625 161.503906 229.378906 C 158.007812 229.695312 154.371094 229.28125 151.265625 227.652344 C 147.921875 225.90625 145.363281 222.824219 144.011719 219.308594 C 142.65625 215.796875 142.460938 211.886719 143.195312 208.195312 "/><path style=" stroke:none;fill-rule:nonzero;fill:#231f20;fill-opacity:1;" d="M 140.230469 208.390625 C 148.855469 210.070312 157.027344 206.734375 165.003906 203.886719 C 169.257812 202.367188 173.574219 201.066406 177.957031 199.984375 C 178.972656 199.734375 179.996094 199.496094 181.015625 199.269531 C 182.109375 199.019531 183.417969 198.546875 184.542969 198.695312 C 186.304688 198.933594 187.214844 201.660156 187.675781 203.128906 C 189.886719 210.125 187.023438 217.566406 180.957031 221.558594 C 177.761719 223.660156 174.125 224.957031 170.507812 226.136719 C 166.398438 227.480469 162.128906 228.609375 157.765625 228.28125 C 153.273438 227.945312 149.207031 225.78125 146.6875 222.015625 C 144.023438 218.039062 143.414062 213.128906 144.28125 208.492188 C 144.550781 207.066406 142.367188 206.457031 142.097656 207.890625 C 140.527344 216.226562 143.570312 225.664062 151.875 229.179688 C 156.132812 230.980469 160.886719 230.859375 165.335938 229.933594 C 169.773438 228.976562 174.054688 227.550781 178.179688 225.660156 C 181.84375 223.984375 185.265625 221.636719 187.5625 218.285156 C 188.621094 216.703125 189.414062 214.996094 189.945312 213.167969 C 190.472656 211.339844 190.710938 209.476562 190.660156 207.574219 C 190.628906 205.667969 190.296875 203.820312 189.671875 202.019531 C 189.0625 200.296875 188.214844 198.296875 186.6875 197.191406 C 184.871094 195.875 182.632812 196.617188 180.644531 197.054688 C 178.125 197.605469 175.625 198.230469 173.140625 198.929688 C 167.796875 200.4375 162.652344 202.449219 157.394531 204.210938 C 152.078125 205.988281 146.425781 207.304688 140.824219 206.222656 C 139.398438 205.945312 138.789062 208.125 140.222656 208.40625 Z M 140.230469 208.390625 "/><path style=" stroke:none;fill-rule:nonzero;fill:#231f20;fill-opacity:1;" d="M 141.660156 224.050781 C 142.722656 223.605469 143.8125 223.257812 144.933594 223.003906 C 146.351562 222.671875 145.753906 220.488281 144.328125 220.820312 C 143.019531 221.132812 141.75 221.558594 140.515625 222.097656 C 139.957031 222.335938 139.828125 223.164062 140.113281 223.644531 C 140.453125 224.226562 141.097656 224.292969 141.660156 224.050781 Z M 141.660156 224.050781 "/><path style=" stroke:none;fill-rule:nonzero;fill:#ffffff;fill-opacity:1;" d="M 159.054688 223.429688 C 164.8125 222.753906 170.570312 221.074219 175.246094 217.65625 C 179.917969 214.242188 183.390625 208.90625 183.660156 203.125 C 184.402344 206.011719 184.644531 209.070312 183.988281 211.976562 C 183.332031 214.882812 181.722656 217.628906 179.261719 219.328125 C 177.222656 220.742188 174.75 221.367188 172.316406 221.84375 C 167.957031 222.6875 163.53125 223.121094 159.101562 223.429688 "/><path style=" stroke:none;fill-rule:nonzero;fill:#231f20;fill-opacity:1;" d="M 159.054688 224.058594 C 163.90625 223.484375 168.738281 222.25 173.011719 219.839844 C 176.953125 217.613281 180.34375 214.339844 182.371094 210.269531 C 183.507812 208.019531 184.140625 205.640625 184.277344 203.125 L 183.042969 203.289062 C 184.191406 207.792969 184.074219 212.945312 181.078125 216.738281 C 179.667969 218.527344 177.757812 219.683594 175.605469 220.382812 C 173.191406 221.160156 170.632812 221.546875 168.125 221.890625 C 165.136719 222.320312 162.117188 222.585938 159.09375 222.796875 C 158.921875 222.800781 158.777344 222.863281 158.652344 222.984375 C 158.53125 223.105469 158.46875 223.25 158.464844 223.421875 C 158.464844 223.597656 158.527344 223.746094 158.648438 223.867188 C 158.773438 223.988281 158.921875 224.050781 159.09375 224.050781 C 161.90625 223.859375 164.710938 223.613281 167.503906 223.242188 C 170.15625 222.894531 172.851562 222.507812 175.421875 221.753906 C 177.769531 221.066406 179.953125 219.929688 181.597656 218.078125 C 183.125 216.320312 184.132812 214.304688 184.617188 212.027344 C 185.285156 209.023438 185.035156 205.914062 184.277344 202.957031 C 184.097656 202.25 183.074219 202.433594 183.042969 203.125 C 182.835938 207.277344 180.910156 211.195312 178.128906 214.238281 C 175.082031 217.574219 171.054688 219.808594 166.78125 221.171875 C 164.261719 221.957031 161.691406 222.5 159.066406 222.800781 C 158.894531 222.804688 158.75 222.867188 158.628906 222.988281 C 158.507812 223.109375 158.441406 223.257812 158.4375 223.429688 C 158.4375 223.601562 158.5 223.75 158.621094 223.871094 C 158.746094 223.996094 158.894531 224.054688 159.066406 224.058594 Z M 159.054688 224.058594 "/></g></svg>